<?xml version="1.0" encoding="utf-8"?>
<!-- created with bpmn-js / http://bpmn.io -->
<!DOCTYPE svg PUBLIC "-//W3C//DTD SVG 1.1//EN" "http://www.w3.org/Graphics/SVG/1.1/DTD/svg11.dtd">
<svg xmlns="http://www.w3.org/2000/svg" xmlns:xlink="http://www.w3.org/1999/xlink" width="355" height="237" viewBox="228 65 355 237" version="1.1"><defs><marker id="sequenceflow-end-white-black-7fzx4n7l2m74m2fyqq4kos3yo" viewBox="0 0 20 20" refX="11" refY="10" markerWidth="10" markerHeight="10" orient="auto"><path d="M 1 5 L 11 10 L 1 15 Z" style="fill: black; stroke-width: 1px; stroke-linecap: round; stroke-dasharray: 10000, 1; stroke: black;"/></marker></defs><g class="djs-group"><g class="djs-element djs-shape" data-element-id="Participant_0h01ijw" style="display: block;" transform="matrix(1 0 0 1 234 71)"><g class="djs-visual"><rect x="0" y="0" width="343" height="225" rx="0" ry="0" style="stroke: black; stroke-width: 2px; fill: white; fill-opacity: 0.95;"/><polyline points="30,0 30,225 " style="fill: none; stroke: black; stroke-width: 2px;"/><text lineHeight="1.2" class="djs-label" style="font-family: Arial, sans-serif; font-size: 12px; font-weight: normal; fill: black;" transform="matrix(-1.83697e-16 -1 1 -1.83697e-16 0 225)"><tspan x="112.5" y="18.6"/></text></g><rect class="djs-hit djs-hit-click-stroke" x="0" y="0" width="343" height="225" style="fill: none; stroke-opacity: 0; stroke: white; stroke-width: 15px;"/><rect class="djs-hit djs-hit-all" x="0" y="0" width="30" height="225" style="fill: none; stroke-opacity: 0; stroke: white; stroke-width: 15px;"/><rect x="-6" y="-6" width="355" height="237" class="djs-outline" style="fill: none;"/></g><g class="djs-children"><g class="djs-group"><g class="djs-element djs-connection" data-element-id="SequenceFlow_1cz7gq7" style="display: block;"><g class="djs-visual"><path d="m  457,194L482,194 " style="fill: none; stroke-width: 2px; stroke: black; stroke-linejoin: round; marker-end: url('#sequenceflow-end-white-black-7fzx4n7l2m74m2fyqq4kos3yo');"/></g><polyline points="457,194 482,194 " class="djs-hit djs-hit-stroke" style="fill: none; stroke-opacity: 0; stroke: white; stroke-width: 15px;"/><rect x="451" y="188" width="37" height="12" class="djs-outline" style="fill: none;"/></g></g><g class="djs-group"><g class="djs-element djs-connection" data-element-id="SequenceFlow_0ab8on2" style="display: block;"><g class="djs-visual"><path d="m  328,194L357,194 " style="fill: none; stroke-width: 2px; stroke: black; stroke-linejoin: round; marker-end: url('#sequenceflow-end-white-black-7fzx4n7l2m74m2fyqq4kos3yo');"/></g><polyline points="328,194 357,194 " class="djs-hit djs-hit-stroke" style="fill: none; stroke-opacity: 0; stroke: white; stroke-width: 15px;"/><rect x="322" y="188" width="41" height="12" class="djs-outline" style="fill: none;"/></g></g><g class="djs-group"><g class="djs-element djs-shape" data-element-id="StartEvent_1" style="display: block;" transform="matrix(1 0 0 1 292 176)"><g class="djs-visual"><circle cx="18" cy="18" r="18" style="stroke: black; stroke-width: 2px; fill: white; fill-opacity: 0.95;"/></g><rect class="djs-hit djs-hit-all" x="0" y="0" width="36" height="36" style="fill: none; stroke-opacity: 0; stroke: white; stroke-width: 15px;"/><rect x="-6" y="-6" width="48" height="48" class="djs-outline" style="fill: none;"/></g></g><g class="djs-group"><g class="djs-element djs-shape" data-element-id="Task_1lcamp6" style="display: block;" transform="matrix(1 0 0 1 357 154)"><g class="djs-visual"><rect x="0" y="0" width="100" height="80" rx="10" ry="10" style="stroke: black; stroke-width: 2px; fill: white; fill-opacity: 0.95;"/><text lineHeight="1.2" class="djs-label" style="font-family: Arial, sans-serif; font-size: 12px; font-weight: normal; fill: black;"><tspan x="26.9296875" y="43.599999999999994">Vacation</tspan></text><path d="m 8,8 0,4 20,0 0,-4 z" style="fill: rgb(170, 170, 170); stroke-width: 1px; stroke: black;"/><path d="m 8,8 0,12 20,0 0,-12 zm 0,8 l 20,0 m -13,-4 l 0,8" style="fill: none; stroke-width: 1px; stroke: black;"/></g><rect class="djs-hit djs-hit-all" x="0" y="0" width="100" height="80" style="fill: none; stroke-opacity: 0; stroke: white; stroke-width: 15px;"/><rect x="-6" y="-6" width="112" height="92" class="djs-outline" style="fill: none;"/></g></g><g class="djs-group"><g class="djs-element djs-shape selected" data-element-id="EndEvent_0irznmi" style="display: block;" transform="matrix(1 0 0 1 482 176)"><g class="djs-visual"><circle cx="18" cy="18" r="18" style="stroke: black; stroke-width: 4px; fill: white; fill-opacity: 0.95;"/></g><rect class="djs-hit djs-hit-all" x="0" y="0" width="36" height="36" style="fill: none; stroke-opacity: 0; stroke: white; stroke-width: 15px;"/><rect x="-6" y="-6" width="48" height="48" class="djs-outline" style="fill: none;"/></g></g></g></g></svg>