<?xml version="1.0" encoding="utf-8"?>
<!-- created with bpmn-js / http://bpmn.io -->
<!DOCTYPE svg PUBLIC "-//W3C//DTD SVG 1.1//EN" "http://www.w3.org/Graphics/SVG/1.1/DTD/svg11.dtd">
<svg xmlns="http://www.w3.org/2000/svg" xmlns:xlink="http://www.w3.org/1999/xlink" width="393" height="293" viewBox="129 9 393 293" version="1.1"><defs><marker id="sequenceflow-end-white-black" viewBox="0 0 20 20" refX="11" refY="10" markerWidth="10" markerHeight="10" orient="auto"><path d="M 1 5 L 11 10 L 1 15 Z" style="fill: black; stroke-width: 1px; stroke-linecap: round; stroke-dasharray: 10000, 1; stroke: black;"></path></marker></defs><g class="djs-group"><g class="djs-element djs-shape selected" data-element-id="Participant_0jf4n5b" style="display: block;" transform="translate(135 15)"><g class="djs-visual"><rect x="0" y="0" width="381" height="281" rx="0" ry="0" style="stroke: black; stroke-width: 2px; fill: white; fill-opacity: 0.95;"/><polyline points="30,0 30,281 " style="fill: none; stroke: black; stroke-width: 2px;"/><text class="djs-label" style="font-family: Arial, sans-serif; font-size: 12px; fill: black;" transform="matrix(-1.83697e-16 -1 1 -1.83697e-16 0 281)"><tspan x="140.5" y="18.5"/></text></g><rect x="0" y="0" width="381" height="281" class="djs-hit" style="fill: none; stroke-opacity: 0; stroke: white; stroke-width: 15px;"/><rect x="-6" y="-6" width="393" height="293" class="djs-outline" style="fill: none;"/></g><g class="djs-children"><g class="djs-group"><g class="djs-element djs-shape" data-element-id="StartEvent_09in9bz" style="display: block;" transform="translate(185 129)"><g class="djs-visual"><circle cx="18" cy="18" r="18" style="stroke: black; stroke-width: 2px; fill: white;"/></g><rect x="0" y="0" width="36" height="36" class="djs-hit" style="fill: none; stroke-opacity: 0; stroke: white; stroke-width: 15px;"/><rect x="-6" y="-6" width="48" height="48" class="djs-outline" style="fill: none;"/></g></g><g class="djs-group"><g class="djs-element djs-shape" data-element-id="StartEvent_09in9bz_label" style="display: block;" transform="translate(192 172)"><g class="djs-visual"><text class="djs-label" style="font-family: Arial, sans-serif; font-size: 11px;"><tspan x="0" y="12">start</tspan></text></g><rect x="0" y="0" width="23" height="12" class="djs-hit" style="fill: none; stroke-opacity: 0; stroke: white; stroke-width: 15px;"/><rect x="-6" y="-6" width="35" height="24" class="djs-outline" style="fill: none;"/></g></g><g class="djs-group"><g class="djs-element djs-shape" data-element-id="Activity_03i6maz" style="display: block;" transform="translate(249 107)"><g class="djs-visual"><rect x="0" y="0" width="100" height="80" rx="10" ry="10" style="stroke: black; stroke-width: 2px; fill: white;"/><text class="djs-label" style="font-family: Arial, sans-serif; font-size: 12px; fill: black;"><tspan x="15.9921875" y="43.5">Activity Task</tspan></text></g><rect x="0" y="0" width="100" height="80" class="djs-hit" style="fill: none; stroke-opacity: 0; stroke: white; stroke-width: 15px;"/><rect x="-6" y="-6" width="112" height="92" class="djs-outline" style="fill: none;"/></g></g><g class="djs-group"><g class="djs-element djs-shape" data-element-id="Event_17lwglu" style="display: block;" transform="translate(411 189)"><g class="djs-visual"><circle cx="18" cy="18" r="18" style="stroke: black; stroke-width: 4px; fill: white;"/></g><rect x="0" y="0" width="36" height="36" class="djs-hit" style="fill: none; stroke-opacity: 0; stroke: white; stroke-width: 15px;"/><rect x="-6" y="-6" width="48" height="48" class="djs-outline" style="fill: none;"/></g></g><g class="djs-group"><g class="djs-element djs-shape" data-element-id="Event_17lwglu_label" style="display: block;" transform="translate(420 232)"><g class="djs-visual"><text class="djs-label" style="font-family: Arial, sans-serif; font-size: 11px;"><tspan x="0" y="12">end</tspan></text></g><rect x="0" y="0" width="19" height="12" class="djs-hit" style="fill: none; stroke-opacity: 0; stroke: white; stroke-width: 15px;"/><rect x="-6" y="-6" width="31" height="24" class="djs-outline" style="fill: none;"/></g></g><g class="djs-group"><g class="djs-element djs-shape" data-element-id="Event_04w6u9w" style="display: block;" transform="translate(411 79)"><g class="djs-visual"><circle cx="18" cy="18" r="18" style="stroke: black; stroke-width: 1px; fill: white;"/><circle cx="18" cy="18" r="15" style="stroke: black; stroke-width: 1px; fill: none;"/><circle cx="18" cy="18" r="11" style="stroke: black; stroke-width: 2px; fill: white;"/><path d="M 18,18 l 2.25,-7.5 m -2.25,7.5 l 5.25,1.5 " style="fill: none; stroke-width: 2px; stroke: black; stroke-linecap: square;"/><path d="M 18,18 m 0,7.5 l -0,2.25 " transform="rotate(0,18,18)" style="fill: none; stroke-width: 1px; stroke: black; stroke-linecap: square;"/><path d="M 18,18 m 0,7.5 l -0,2.25 " transform="rotate(30,18,18)" style="fill: none; stroke-width: 1px; stroke: black; stroke-linecap: square;"/><path d="M 18,18 m 0,7.5 l -0,2.25 " transform="rotate(60,18,18)" style="fill: none; stroke-width: 1px; stroke: black; stroke-linecap: square;"/><path d="M 18,18 m 0,7.5 l -0,2.25 " transform="rotate(90,18,18)" style="fill: none; stroke-width: 1px; stroke: black; stroke-linecap: square;"/><path d="M 18,18 m 0,7.5 l -0,2.25 " transform="rotate(120,18,18)" style="fill: none; stroke-width: 1px; stroke: black; stroke-linecap: square;"/><path d="M 18,18 m 0,7.5 l -0,2.25 " transform="rotate(150,18,18)" style="fill: none; stroke-width: 1px; stroke: black; stroke-linecap: square;"/><path d="M 18,18 m 0,7.5 l -0,2.25 " transform="rotate(180,18,18)" style="fill: none; stroke-width: 1px; stroke: black; stroke-linecap: square;"/><path d="M 18,18 m 0,7.5 l -0,2.25 " transform="rotate(210,18,18)" style="fill: none; stroke-width: 1px; stroke: black; stroke-linecap: square;"/><path d="M 18,18 m 0,7.5 l -0,2.25 " transform="rotate(240,18,18)" style="fill: none; stroke-width: 1px; stroke: black; stroke-linecap: square;"/><path d="M 18,18 m 0,7.5 l -0,2.25 " transform="rotate(270,18,18)" style="fill: none; stroke-width: 1px; stroke: black; stroke-linecap: square;"/><path d="M 18,18 m 0,7.5 l -0,2.25 " transform="rotate(300,18,18)" style="fill: none; stroke-width: 1px; stroke: black; stroke-linecap: square;"/><path d="M 18,18 m 0,7.5 l -0,2.25 " transform="rotate(330,18,18)" style="fill: none; stroke-width: 1px; stroke: black; stroke-linecap: square;"/></g><rect x="0" y="0" width="36" height="36" class="djs-hit" style="fill: none; stroke-opacity: 0; stroke: white; stroke-width: 15px;"/><rect x="-6" y="-6" width="48" height="48" class="djs-outline" style="fill: none;"/></g></g><g class="djs-group"><g class="djs-element djs-shape" data-element-id="Event_04w6u9w_label" style="display: none;" transform="translate(384 115)"><g class="djs-visual"><text class="djs-label" style="font-family: Arial, sans-serif; font-size: 11px;"><tspan x="0" y="12"/></text></g><rect x="0" y="0" width="90" height="20" class="djs-hit" style="fill: none; stroke-opacity: 0; stroke: white; stroke-width: 15px;"/><rect x="-6" y="-6" width="102" height="32" class="djs-outline" style="fill: none;"/></g></g><g class="djs-group"><g class="djs-element djs-connection" data-element-id="Flow_07jc6tg" style="display: block;"><g class="djs-visual"><path d="m  221,147L249,147 " style="fill: none; stroke-width: 2px; stroke: black; stroke-linejoin: round; marker-end: url('#sequenceflow-end-white-black');"/></g><polyline points="221,147 249,147 " class="djs-hit" style="fill: none; stroke-opacity: 0; stroke: white; stroke-width: 15px;"/><rect x="215" y="141" width="40" height="12" class="djs-outline" style="fill: none;"/></g></g><g class="djs-group"><g class="djs-element djs-shape" data-element-id="Flow_07jc6tg_label" style="display: none;" transform="translate(190 122)"><g class="djs-visual"><text class="djs-label" style="font-family: Arial, sans-serif; font-size: 11px;"><tspan x="0" y="12"/></text></g><rect x="0" y="0" width="90" height="20" class="djs-hit" style="fill: none; stroke-opacity: 0; stroke: white; stroke-width: 15px;"/><rect x="-6" y="-6" width="102" height="32" class="djs-outline" style="fill: none;"/></g></g><g class="djs-group"><g class="djs-element djs-connection" data-element-id="Flow_1sg7v2d" style="display: block;"><g class="djs-visual"><path d="m  349,147L369,147 L369,97 L411,97 " style="fill: none; stroke-width: 2px; stroke: black; stroke-linejoin: round; marker-end: url('#sequenceflow-end-white-black');"/></g><polyline points="349,147 369,147 369,97 411,97 " class="djs-hit" style="fill: none; stroke-opacity: 0; stroke: white; stroke-width: 15px;"/><rect x="343" y="91" width="74" height="62" class="djs-outline" style="fill: none;"/></g></g><g class="djs-group"><g class="djs-element djs-shape" data-element-id="Flow_1sg7v2d_label" style="display: none;" transform="translate(339 112)"><g class="djs-visual"><text class="djs-label" style="font-family: Arial, sans-serif; font-size: 11px;"><tspan x="0" y="12"/></text></g><rect x="0" y="0" width="90" height="20" class="djs-hit" style="fill: none; stroke-opacity: 0; stroke: white; stroke-width: 15px;"/><rect x="-6" y="-6" width="102" height="32" class="djs-outline" style="fill: none;"/></g></g><g class="djs-group"><g class="djs-element djs-connection" data-element-id="Flow_1nku8og" style="display: block;"><g class="djs-visual"><path d="m  429,115L429,189 " style="fill: none; stroke-width: 2px; stroke: black; stroke-linejoin: round; marker-end: url('#sequenceflow-end-white-black');"/></g><polyline points="429,115 429,189 " class="djs-hit" style="fill: none; stroke-opacity: 0; stroke: white; stroke-width: 15px;"/><rect x="423" y="109" width="12" height="86" class="djs-outline" style="fill: none;"/></g></g><g class="djs-group"><g class="djs-element djs-shape" data-element-id="Flow_1nku8og_label" style="display: none;" transform="translate(399 142)"><g class="djs-visual"><text class="djs-label" style="font-family: Arial, sans-serif; font-size: 11px;"><tspan x="0" y="12"/></text></g><rect x="0" y="0" width="90" height="20" class="djs-hit" style="fill: none; stroke-opacity: 0; stroke: white; stroke-width: 15px;"/><rect x="-6" y="-6" width="102" height="32" class="djs-outline" style="fill: none;"/></g></g></g></g></svg>